<svg width="1920" height="1080" viewBox="0 0 1920 1080" xmlns="http://www.w3.org/2000/svg"><rect width="1920" height="1080" fill="#ffffff"/><path d="M681,42.99999999999984C706.6230617184615,130.950076971645,656.1088666419951,263.269122883174,613.6828173159167,351.68814112954374C571.2567679898384,440.10715937591345,505.7093932977366,519.4490513304443,426.44370404353026,573.5141094782181C347.1780147893239,627.5791676259919,228.4637549364228,706.4677708441689,138.0886817906786,676.0784900161864C47.71360864493441,645.6892091882039,-16.18319816495675,425.25687379426495,-115.80673483093494,391.1784245103234C-215.43027149691312,357.09997522638184,-372.72270621658225,500.5478528319072,-459.6525382051906,471.60779431253695C-546.582370193799,442.6677357931667,-611.7635286696859,316.37529032057955,-637.385726762585,217.53807339410173C-663.0079248554841,118.7008564676239,-645.2425553871004,-17.724529295223704,-613.3857267625851,-121.4155072463301C-581.5288981380698,-225.10648519743648,-511.91599301697227,-353.5361629348003,-446.24475501549335,-404.6077943125366C-380.57351701401444,-455.6794256902729,-311.9594677850177,-439.7884871564312,-219.35829875371172,-427.84529551274807C-126.75712972240574,-415.90210386906494,5.228592039468936,-316.17050878952625,109.36225917234258,-332.94864445043794C213.49592630521622,-349.7267801113496,347.01333940472915,-554.67016343657,405.44370404353003,-528.5141094782182C463.8740686823309,-502.3580555198664,414.01839767906955,-271.2646722800302,459.9444470051479,-176.01232070032717C505.8704963312262,-80.75996912062415,655.3769382815385,-44.95007697164531,681,42.99999999999984C706.6230617184615,130.950076971645,656.1088666419951,263.269122883174,613.6828173159167,351.68814112954374" fill="#212121"/></svg>