<svg width="1920" height="1080" viewBox="0 0 1920 1080" xmlns="http://www.w3.org/2000/svg"><rect width="1920" height="1080" fill="#ffffff"/><path d="M2332.2205762759463,44.99999999999984C2357.405203335007,137.79050796811708,2562.2166837697905,215.24881546003166,2555.153985834133,303.8715239043517C2548.0912878984755,392.49423234867174,2365.727151908714,508.20211452952356,2289.8443886620003,576.7362506659201C2213.9616254152866,645.2703868023167,2179.031742867604,695.5196590465958,2099.8574063538517,715.076340722731C2020.6830698400997,734.633022398866,1908.5838733475707,765.6205217829418,1814.7983695794878,694.076340722731C1721.012865811405,622.5321596625201,1611.3530939529362,352.3453904978624,1537.1443837453548,285.8112543614659C1462.9356735377735,219.2771182250694,1413.5701722915587,336.84006629792947,1369.5461083339997,294.8715239043518C1325.5220443764406,252.90298151077417,1259.1856271100287,122.72080784804842,1273,34.000000000000064C1286.8143728899713,-54.7208078480483,1413.0749483829345,-183.0246108910997,1452.432345673827,-237.45332318393838C1491.7897429647196,-291.88203547677705,1446.583379761078,-229.0643314351183,1509.1443837453548,-292.57227375703195C1571.7053877296316,-356.08021607894557,1733.2888284669614,-566.7502992878037,1827.7983695794876,-618.5009771154203C1922.3079106920138,-670.2516549430368,1981.8587559746525,-627.5371284643143,2076.201630420512,-603.076340722731C2170.544504866372,-578.6155529811476,2339.214850744769,-530.1037201356501,2393.855616254645,-471.73625066592024C2448.496381764521,-413.3687811961904,2414.3187301428848,-338.9942323486719,2404.0462234797683,-252.87152390435187C2393.773716816652,-166.74881546003184,2307.0359492168855,-47.79050796811742,2332.2205762759463,44.99999999999984C2357.405203335007,137.79050796811708,2562.2166837697905,215.24881546003166,2555.153985834133,303.8715239043517" fill="#212121"/></svg>