<svg width="1920" height="1080" viewBox="0 0 1920 1080" xmlns="http://www.w3.org/2000/svg"><rect width="1920" height="1080" fill="#ffffff"/><path d="M1153,551C1151.2658798877562,579.222595947957,1107.5557369567387,619.0985735010338,1089.947828482779,646.167787843871C1072.3399200088193,673.2370021867082,1074.4199559616047,699.333504456956,1047.3525491562423,713.415286057023C1020.2851423508798,727.4970676570899,949.5753252483283,748.5236178200855,927.5433876506044,730.6584774442731C905.5114500528804,712.7933370684607,925.0848215116657,635.0008567095269,915.1609235698984,606.2244438021481C905.237025628131,577.4480308947693,877.0855787876901,581.2320386076699,868,558C858.9144212123099,534.7679613923301,843.5395423697983,484.92912954726023,860.6474508437578,466.83221215612906C877.7553593177174,448.7352947649979,938.6966011250105,445.8546157290945,970.6474508437578,449.41849565321303C1002.5983005625052,452.98237557733154,1030.735032770828,483.6465389503541,1052.352549156242,488.2154917008401C1073.9700655416561,492.7844444513261,1083.5779740156158,466.36812743960235,1100.352549156242,476.832212156129C1117.1271242968683,487.29629687265566,1154.7341201122438,522.777404052043,1153,551C1151.2658798877562,579.222595947957,1107.5557369567387,619.0985735010338,1089.947828482779,646.167787843871" fill="#212121"/></svg>