<svg width="1920" height="1080" viewBox="0 0 1920 1080" xmlns="http://www.w3.org/2000/svg"><rect width="1920" height="1080" fill="#ffffff"/><path d="M2482.1011090076736,1082C2432.130145365074,1169.803988131724,2250.0357861040393,1274.1630297750057,2234.3282039785345,1369.9524048859923C2218.6206218530297,1465.741779996979,2408.831488117312,1587.882261359797,2387.855616254645,1656.7362506659201C2366.8797443919784,1725.5902399720433,2207.48251391506,1767.5996516188577,2108.4729728025336,1783.076340722731C2009.4634316900074,1798.5530298266042,1862.5093238144957,1812.6625754576048,1793.7983695794878,1749.5963852891591C1725.08741534448,1686.5301951207134,1748.0875347936137,1465.3000099428584,1696.2072473924864,1404.6791997120572C1644.326959991359,1344.058389481256,1521.5509073067185,1434.8180571896946,1482.5166451727232,1385.8715239043518C1443.482383038728,1336.924990619009,1490.4467797563238,1202.4743680579784,1462.0016745885146,1111C1433.5565694207053,1019.5256319420217,1301.3222293063936,927.148024000802,1311.846014165867,837.025315556482C1322.3697990253404,746.9026071121621,1432.9315473695378,631.7806920472822,1525.1443837453548,570.26374933408C1617.3572201211718,508.7468066208778,1774.6928196934512,449.1247659690221,1865.1230324207684,467.92365927726905C1955.5532451480856,486.722552585516,2009.2260577015554,637.4484259041943,2067.7256601092577,683.0571091835616C2126.22526251696,728.6657924629288,2138.382592579503,714.8971978014581,2216.1206468669825,741.5757589534726C2293.858701154462,768.2543201054871,2489.8239088106843,786.3911025878936,2534.153985834133,843.1284760956481C2578.4840628575816,899.8658496034027,2532.072072650273,994.196011868276,2482.1011090076736,1082C2432.130145365074,1169.803988131724,2250.0357861040393,1274.1630297750057,2234.3282039785345,1369.9524048859923" fill="#212121"/></svg>