<svg width="1920" height="1080" viewBox="0 0 1920 1080" xmlns="http://www.w3.org/2000/svg"><rect width="1920" height="1080" fill="#ffffff"/><path d="M723,1092.9999999999998C725.5174746669129,1167.4355851055327,723.4893358757927,1189.226266509144,654.1539858341329,1261.7419867288456C584.8186357924731,1334.2577069485474,389.1466256523113,1446.2052623192294,306.9878997500412,1528.0943213182102C224.82917384777113,1609.983380317191,227.95338058200946,1713.912140413456,161.20163042051226,1753.076340722731C94.44988025901505,1792.240541032006,-23.0000972280953,1816.8599315197307,-93.5226012189421,1763.0795231738605C-164.04510520978891,1709.2991148279903,-177.3281627553701,1514.5261060112298,-261.93339352456854,1430.39389064751C-346.538624293767,1346.2616752837903,-588.5747981119338,1311.518546099461,-601.1539858341329,1258.2862309915427C-613.733173556332,1205.0539158836243,-342.2418531910964,1181.3596258159823,-337.4085198577631,1111C-332.5751865244298,1040.6403741840177,-561.9128031013191,920.5845178733017,-572.1539858341329,836.1284760956484C-582.3951685669466,751.672434317995,-473.18100882358203,664.7978854704766,-398.85561625464527,604.26374933408C-324.5302236857085,543.7296131976834,-207.07353381989554,490.33920904534403,-126.20163042051234,472.92365927726905C-45.32972702112916,455.50810950919407,15.118816026903431,477.0471023828282,86.3758041416538,499.77045072563C157.63279225640417,522.4937990684318,209.22807598615634,556.7040784390767,301.3402982679899,609.2637493340798C393.4525205498235,661.8234202290828,568.7725208773203,734.5057676513281,639.0491378326553,815.1284760956481C709.3257547879904,895.7511845399681,720.4825253330871,1018.5644148944668,723,1092.9999999999998C725.5174746669129,1167.4355851055327,723.4893358757927,1189.226266509144,654.1539858341329,1261.7419867288456" fill="#212121"/></svg>